<mxfile host="app.diagrams.net" modified="2023-06-07T17:49:53.544Z" agent="Mozilla/5.0 (X11; Ubuntu; Linux x86_64; rv:109.0) Gecko/20100101 Firefox/113.0" etag="OG0r_Dg4_X2VPPS5Nwiy" version="21.3.0" type="device">
  <diagram name="Page-1" id="od_CGxAugvCc8T6KWEVS">
    <mxGraphModel dx="1130" dy="690" grid="1" gridSize="10" guides="1" tooltips="1" connect="1" arrows="1" fold="1" page="1" pageScale="1" pageWidth="850" pageHeight="1100" math="0" shadow="0">
      <root>
        <mxCell id="0" />
        <mxCell id="1" parent="0" />
        <mxCell id="rdxOm4ll-c5LQ-eCg1Pd-2" value="Client" style="rounded=0;whiteSpace=wrap;html=1;" vertex="1" parent="1">
          <mxGeometry x="50" y="130" width="120" height="310" as="geometry" />
        </mxCell>
        <mxCell id="rdxOm4ll-c5LQ-eCg1Pd-14" value="" style="edgeStyle=orthogonalEdgeStyle;rounded=0;orthogonalLoop=1;jettySize=auto;html=1;" edge="1" parent="1" source="rdxOm4ll-c5LQ-eCg1Pd-3" target="rdxOm4ll-c5LQ-eCg1Pd-5">
          <mxGeometry relative="1" as="geometry" />
        </mxCell>
        <mxCell id="rdxOm4ll-c5LQ-eCg1Pd-18" style="edgeStyle=orthogonalEdgeStyle;rounded=0;orthogonalLoop=1;jettySize=auto;html=1;exitX=0;exitY=0.75;exitDx=0;exitDy=0;entryX=1;entryY=0.75;entryDx=0;entryDy=0;" edge="1" parent="1" source="rdxOm4ll-c5LQ-eCg1Pd-3" target="rdxOm4ll-c5LQ-eCg1Pd-2">
          <mxGeometry relative="1" as="geometry" />
        </mxCell>
        <mxCell id="rdxOm4ll-c5LQ-eCg1Pd-3" value="Travel Package Controller" style="rounded=0;whiteSpace=wrap;html=1;" vertex="1" parent="1">
          <mxGeometry x="305" y="130" width="120" height="310" as="geometry" />
        </mxCell>
        <mxCell id="rdxOm4ll-c5LQ-eCg1Pd-16" value="" style="edgeStyle=orthogonalEdgeStyle;rounded=0;orthogonalLoop=1;jettySize=auto;html=1;" edge="1" parent="1" source="rdxOm4ll-c5LQ-eCg1Pd-5" target="rdxOm4ll-c5LQ-eCg1Pd-7">
          <mxGeometry relative="1" as="geometry" />
        </mxCell>
        <mxCell id="rdxOm4ll-c5LQ-eCg1Pd-17" style="edgeStyle=orthogonalEdgeStyle;rounded=0;orthogonalLoop=1;jettySize=auto;html=1;exitX=0;exitY=0.75;exitDx=0;exitDy=0;entryX=1;entryY=0.75;entryDx=0;entryDy=0;" edge="1" parent="1" source="rdxOm4ll-c5LQ-eCg1Pd-5" target="rdxOm4ll-c5LQ-eCg1Pd-3">
          <mxGeometry relative="1" as="geometry" />
        </mxCell>
        <mxCell id="rdxOm4ll-c5LQ-eCg1Pd-5" value="Service Layer" style="rounded=0;whiteSpace=wrap;html=1;" vertex="1" parent="1">
          <mxGeometry x="510" y="130" width="120" height="310" as="geometry" />
        </mxCell>
        <mxCell id="rdxOm4ll-c5LQ-eCg1Pd-7" value="Model" style="rounded=0;whiteSpace=wrap;html=1;" vertex="1" parent="1">
          <mxGeometry x="720" y="130" width="120" height="310" as="geometry" />
        </mxCell>
        <mxCell id="rdxOm4ll-c5LQ-eCg1Pd-8" value="DataBase" style="shape=cylinder3;whiteSpace=wrap;html=1;boundedLbl=1;backgroundOutline=1;size=15;" vertex="1" parent="1">
          <mxGeometry x="640" y="490" width="60" height="80" as="geometry" />
        </mxCell>
        <mxCell id="rdxOm4ll-c5LQ-eCg1Pd-9" value="" style="endArrow=classic;html=1;rounded=0;entryX=1;entryY=0.5;entryDx=0;entryDy=0;entryPerimeter=0;exitX=0.5;exitY=1;exitDx=0;exitDy=0;" edge="1" parent="1" source="rdxOm4ll-c5LQ-eCg1Pd-7" target="rdxOm4ll-c5LQ-eCg1Pd-8">
          <mxGeometry width="50" height="50" relative="1" as="geometry">
            <mxPoint x="620" y="390" as="sourcePoint" />
            <mxPoint x="670" y="340" as="targetPoint" />
            <Array as="points">
              <mxPoint x="780" y="530" />
            </Array>
          </mxGeometry>
        </mxCell>
        <mxCell id="rdxOm4ll-c5LQ-eCg1Pd-10" value="" style="endArrow=classic;html=1;rounded=0;exitX=0;exitY=0.5;exitDx=0;exitDy=0;exitPerimeter=0;entryX=0.5;entryY=1;entryDx=0;entryDy=0;" edge="1" parent="1" source="rdxOm4ll-c5LQ-eCg1Pd-8" target="rdxOm4ll-c5LQ-eCg1Pd-5">
          <mxGeometry width="50" height="50" relative="1" as="geometry">
            <mxPoint x="620" y="390" as="sourcePoint" />
            <mxPoint x="670" y="340" as="targetPoint" />
            <Array as="points">
              <mxPoint x="570" y="530" />
            </Array>
          </mxGeometry>
        </mxCell>
        <mxCell id="rdxOm4ll-c5LQ-eCg1Pd-11" value="Jpa/Spring Data" style="text;html=1;align=center;verticalAlign=middle;resizable=0;points=[];autosize=1;strokeColor=none;fillColor=none;" vertex="1" parent="1">
          <mxGeometry x="755" y="478" width="110" height="30" as="geometry" />
        </mxCell>
        <mxCell id="rdxOm4ll-c5LQ-eCg1Pd-13" value="" style="endArrow=classic;html=1;rounded=0;entryX=0;entryY=0.5;entryDx=0;entryDy=0;exitX=1;exitY=0.5;exitDx=0;exitDy=0;" edge="1" parent="1" source="rdxOm4ll-c5LQ-eCg1Pd-2" target="rdxOm4ll-c5LQ-eCg1Pd-3">
          <mxGeometry width="50" height="50" relative="1" as="geometry">
            <mxPoint x="170" y="300" as="sourcePoint" />
            <mxPoint x="220" y="250" as="targetPoint" />
          </mxGeometry>
        </mxCell>
        <mxCell id="rdxOm4ll-c5LQ-eCg1Pd-19" value="Https" style="text;html=1;align=center;verticalAlign=middle;resizable=0;points=[];autosize=1;strokeColor=none;fillColor=none;" vertex="1" parent="1">
          <mxGeometry x="215" y="248" width="50" height="30" as="geometry" />
        </mxCell>
      </root>
    </mxGraphModel>
  </diagram>
</mxfile>
